# xmcd CD database file
#
# Track frame offsets:
#	150
#	18662
#	40845
#	65382
#	83555
#	108902
#	126927
#	148690
#	168247
#	186492
#	203830
#
# Disc length: 2983 seconds
#
# Revision: 4
# Processed by: cddbd v1.5.2PL0 Copyright (c) Steve Scherf et al.
# Submitted via: CDex 1.70beta2
#
DISCID=960ba50b
DTITLE=吉田拓郎 - 感度良好 波高し
DYEAR=1996
DGENRE=Folk
TTITLE0=ベイ・サイド・バー 
TTITLE1=今日までそして明日から
TTITLE2=いつでも
TTITLE3=マンボウ
TTITLE4=遥かなる
TTITLE5=センチメンタルを越えて
TTITLE6=夢を語るには
TTITLE7=心のままに
TTITLE8=漂流記
TTITLE9=この国JAPAN 
TTITLE10=まァ取り敢えず
EXTD=YEAR: 1996
EXTT0=
EXTT1=
EXTT2=
EXTT3=
EXTT4=
EXTT5=
EXTT6=
EXTT7=
EXTT8=
EXTT9=
EXTT10=
PLAYORDER=
